<?xml version="1.0" encoding="UTF-8"?>
<svg width="115px" height="116px" viewBox="0 0 115 116" version="1.1" xmlns="http://www.w3.org/2000/svg" xmlns:xlink="http://www.w3.org/1999/xlink">
    <title>Global/Logos/Logo Black 115x116</title>
    <g id="Global/Logos/Logo-Black-115x116" stroke="none" stroke-width="1" fill="none" fill-rule="evenodd">
        <g id="Nissan-Brand-Logo-RGB-B-w_R" transform="translate(8.000000, 16.000000)" fill-rule="nonzero">
            <path d="M13.8644146,29.6166014 C18.9771896,14.3244662 33.1071532,4.05065836 49.0041382,4.05065836 C64.9011232,4.05065836 79.033156,14.3244662 84.1459309,29.6166014 L84.1873132,29.7436477 L95.375,29.7436477 L95.375,28.3736655 L90.7215678,27.8210142 C87.8537791,27.4779893 87.2392529,26.1842349 86.4612669,24.5432206 L86.2626322,24.13879 C79.5380192,9.47553381 64.9093997,0 48.9937927,0 C33.0781857,0 18.4495661,9.47553381 11.7270223,24.13879 L11.536664,24.5368683 C10.7607471,26.1778826 10.1400136,27.471637 7.27843216,27.8146619 L2.625,28.3736655 L2.625,29.75 L13.8126868,29.75 L13.8644146,29.6166014 Z" id="Path" fill="#000000"></path>
            <path d="M84.1894551,52.5084691 L84.1480655,52.6355064 C79.0323084,67.9265533 64.91017,78.1975126 49.0020695,78.1975126 L49.0020695,78.1975126 C33.08983,78.1975126 18.9676916,67.9202014 13.8664209,52.6270372 L13.8229618,52.5 L2.625,52.5 L2.625,53.8741193 L7.27719332,54.4288485 C10.141355,54.771849 10.7621993,56.0676286 11.5361852,57.7064088 L11.724508,58.1002242 C18.4482518,72.7687887 33.0794826,82.2478827 48.9979305,82.25 L48.9979305,82.25 C64.9122395,82.25 79.5434703,72.7730233 86.2692835,58.1129279 L86.4596758,57.7127607 C87.2357312,56.0760978 87.8482976,54.7803181 90.7186677,54.4394349 L95.375,53.8847057 L95.375,52.5105864 L84.1894551,52.5084691 Z" id="Path" fill="#000000"></path>
            <rect id="Rectangle" fill="#000000" x="20.125" y="35.875" width="2.625" height="11.375"></rect>
            <polygon id="Path" fill="#000000" points="14 47.25 14 35.875 11.5081301 35.875 11.5081301 44.3523425 3.20731707 35.875 0 35.875 0 47.25 2.49186992 47.25 2.49186992 38.7151562 10.851626 47.25"></polygon>
            <path d="M70.3488527,35.875 L63,47.25 L66.1592206,47.25 L67.4658249,45.21897 L76.0362996,45.21897 L77.342904,47.25 L80.5,47.25 L73.1553964,35.875 L70.3488527,35.875 Z M74.6914532,43.0626693 L68.8085468,43.0626693 L71.7531868,38.4913116 L74.6914532,43.0626693 Z" id="Shape" fill="#000000"></path>
            <path d="M57.6426739,44.882822 C57.5688829,44.8951403 57.2399859,44.9054056 57.1092704,44.9054056 L46.7131717,44.9054056 L46.7131717,47.25 L57.2716106,47.25 C57.3601598,47.25 57.9673544,47.25 58.1149364,47.2335755 C60.2696338,47.0467471 61.25,45.2995931 61.25,43.7577451 C61.25,42.2158972 60.2211425,40.5098044 58.266735,40.3229759 C57.9865268,40.2957187 57.704999,40.283382 57.4234092,40.2860209 L50.5207877,40.2860209 C50.2636856,40.2906017 50.0067191,40.2713531 49.7533612,40.2285352 C49.2976403,40.1085806 48.9889415,39.696098 49.0112345,39.2369073 C49.0096261,38.7785801 49.3202233,38.3747454 49.772336,38.2473324 C50.0096559,38.196838 50.2531573,38.1795552 50.4954879,38.1960059 L60.4593821,38.1960059 L60.4593821,35.8760482 L50.3394726,35.8760482 C50.0013303,35.8704047 49.6631923,35.8875545 49.3274817,35.9273747 C47.6145472,36.1277179 46.3374891,37.5613984 46.3758414,39.2410134 C46.3758414,40.6494125 47.2845249,42.2918604 49.2810987,42.5731296 C49.6415978,42.6117023 50.0042858,42.6274755 50.3668807,42.62035 L57.0924039,42.62035 C57.2189027,42.62035 57.5140668,42.62035 57.5794245,42.6347214 C58.154172,42.7013878 58.5916748,43.1685655 58.6070127,43.7320086 C58.6223505,44.2954517 58.210879,44.7845444 57.6405656,44.8807689" id="Path" fill="#000000"></path>
            <path d="M38.3915783,44.8823987 C38.3157003,44.8947192 37.9868955,44.9049863 37.8583244,44.9049863 L27.4630347,44.9049863 L27.4630347,47.25 L38.0206191,47.25 C38.1070357,47.25 38.7161676,47.25 38.8637082,47.2335726 C41.0178011,47.0467107 42,45.2992443 42,43.7571206 C42,42.214997 40.9777544,40.5085991 39.0260029,40.3237907 C38.7458657,40.2966297 38.4644227,40.2842911 38.1829137,40.286829 L31.2716901,40.286829 C31.0146572,40.2915105 30.7577531,40.2722577 30.504479,40.229333 C30.0485226,40.109481 29.7392082,39.6971573 29.7604528,39.2375278 C29.7591142,38.7785455 30.0706269,38.3744537 30.5234485,38.247776 C30.7607018,38.1972725 31.0041349,38.1799867 31.2463975,38.1964403 L41.2053884,38.1964403 L41.2053884,35.8760678 L31.0883182,35.8760678 C30.7502698,35.8703639 30.4122224,35.887517 30.0766112,35.9274034 C28.3646514,36.1286891 27.0884487,37.5620677 27.1257991,39.2416346 C27.1257991,40.6502856 28.0342277,42.2930272 30.0302413,42.5743467 C30.3913412,42.6129691 30.7546313,42.6287451 31.1178264,42.6215755 L37.8393549,42.6215755 C37.967926,42.6215755 38.2608995,42.6215755 38.3283466,42.6359495 C38.9029329,42.7026279 39.3403129,43.1698891 39.3556465,43.733433 C39.37098,44.2969768 38.9596239,44.786157 38.3894706,44.8823987" id="Path" fill="#000000"></path>
            <polygon id="Path" fill="#000000" points="98 47.25 98 35.875 95.5081301 35.875 95.5081301 44.3523425 87.2073171 35.875 84 35.875 84 47.25 86.4918699 47.25 86.4918699 38.7151562 94.851626 47.25"></polygon>
            <path d="M92.3482389,75.250585 C93.5531426,75.2702633 94.5151974,76.2606652 94.4998182,77.465561 C94.4844389,78.6704568 93.4974188,79.6359838 92.2924053,79.6249056 C91.0873918,79.6138275 90.1182921,78.6303171 90.125035,77.4253423 C90.1243472,76.8399174 90.3599194,76.2789738 90.7784216,75.8695848 C91.1969237,75.4601959 91.7629367,75.2370095 92.3482389,75.250585 Z M92.3482389,79.1949738 C92.8088598,79.1952533 93.2497946,79.0082208 93.5697112,78.6768415 C93.8896277,78.3454622 94.0610131,77.8982347 94.0444808,77.4379374 C94.015666,76.5028317 93.2384958,75.7657093 92.3031185,75.7863077 C91.3677411,75.8069061 90.6237776,76.5775262 90.6361604,77.5129937 C90.6485432,78.4484612 91.412644,79.1991213 92.3482389,79.1949738 Z M91.5085151,78.5652005 L91.5085151,76.3631539 C91.7764111,76.3131581 92.0484284,76.2885585 92.3209478,76.2896823 C92.715618,76.2896823 93.2887294,76.3631539 93.2887294,76.9362318 C93.2730227,77.1912003 93.0862836,77.4029985 92.8352786,77.4505325 L92.8352786,77.4862187 C93.0452096,77.557591 93.1585723,77.7360219 93.2173529,78.0236104 C93.2459374,78.2142104 93.3025302,78.3995408 93.3852977,78.5735973 L92.8835627,78.5735973 C92.7996258,78.3999967 92.7429779,78.2144854 92.715618,78.0236104 C92.6316456,77.6772446 92.4406085,77.6772446 91.9871577,77.6772446 L91.9871577,78.5735973 L91.5085151,78.5652005 Z M91.9976542,77.3224821 C92.369232,77.3224821 92.776498,77.3224821 92.776498,76.9866123 C92.776498,76.7766936 92.6316456,76.6402465 92.2852596,76.6402465 C92.1887425,76.6375929 92.0922403,76.6460452 91.9976542,76.6654367 L91.9976542,77.3224821 Z" id="Shape" fill="#231916"></path>
        </g>
    </g>
</svg>